PathFileType	4	(X/Y/Z)	/Users/itak/Documents/Research/Walk-IL/dataset/trc/00490_00167.trc
DataRate	CameraRate	NumFrames	NumMarkers	Units	OrigDataRate	OrigDataStartFrame	OrigNumFrames
100.000000	100.000000	4	53	mm	100.000000	203	542
Frame#	Time	RPSI			LPSI			L3			STRN			T10			C7			CLAV			RBAK			LBAK			LSHO			LUPA			LAEL			LAOL			LWTS			LWPS			LFRA			LIFD			LHPS			LHTS			RSHO			RUPA			RAEL			RAOL			RWTS			RWPS			RFRA			RIFD			RHTS			RHPS			RBHD			LFHD			RFHD			LBHD			LHIP			RHIP			RASI			LASI			LKNE			LTHI			LANK			LTIP			LTOE			LMT1			LMT5			LHEE			RKNE			RTHI			RANK			RTIP			RTOE			RMT1			RMT5			RHEE			
		X1	Y1	Z1	X2	Y2	Z2	X3	Y3	Z3	X4	Y4	Z4	X5	Y5	Z5	X6	Y6	Z6	X7	Y7	Z7	X8	Y8	Z8	X9	Y9	Z9	X10	Y10	Z10	X11	Y11	Z11	X12	Y12	Z12	X13	Y13	Z13	X14	Y14	Z14	X15	Y15	Z15	X16	Y16	Z16	X17	Y17	Z17	X18	Y18	Z18	X19	Y19	Z19	X20	Y20	Z20	X21	Y21	Z21	X22	Y22	Z22	X23	Y23	Z23	X24	Y24	Z24	X25	Y25	Z25	X26	Y26	Z26	X27	Y27	Z27	X28	Y28	Z28	X29	Y29	Z29	X30	Y30	Z30	X31	Y31	Z31	X32	Y32	Z32	X33	Y33	Z33	X34	Y34	Z34	X35	Y35	Z35	X36	Y36	Z36	X37	Y37	Z37	X38	Y38	Z38	X39	Y39	Z39	X40	Y40	Z40	X41	Y41	Z41	X42	Y42	Z42	X43	Y43	Z43	X44	Y44	Z44	X45	Y45	Z45	X46	Y46	Z46	X47	Y47	Z47	X48	Y48	Z48	X49	Y49	Z49	X50	Y50	Z50	X51	Y51	Z51	X52	Y52	Z52	X53	Y53	Z53	

204	2.03	-1474.79541015625	926.5426025390625	-285.5908813476562	-1382.515380859375	913.4738159179688	-393.9706726074219	-1430.383666992188	1026.473510742188	-304.0840148925781	-1178.259765625	1187.554443359375	-141.2467803955078	-1428.62158203125	1151.543212890625	-298.2286987304688	-1346.144165039062	1409.226318359375	-235.8958740234375	-1191.902709960938	1303.891479492188	-160.3031921386719	-1462.850708007812	1302.858520507812	-190.5933074951172	-1330.789306640625	1363.198608398438	-340.9581909179688	-1200.868041992188	1367.338989257812	-358.2491455078125	-1177.701049804688	1250.60986328125	-455.1235656738281	-1174.31640625	1036.619140625	-495.2964782714844	-1275.984985351562	1033.500122070312	-471.4985961914062	-1154.883056640625	820.3909301757812	-443.8187561035156	-1171.1484375	816.6542358398438	-516.4169921875	-1164.522705078125	947.0390625	-504.8900756835938	-1178.592895507812	660.4047241210938	-466.1173095703125	-1177.223510742188	738.3067016601562	-521.3795166015625	-1151.726318359375	732.5650634765625	-453.4266967773438	-1369.068603515625	1373.996948242188	-63.15470886230469	-1429.304809570312	1320.29736328125	-6.335880279541016	-1493.602661132812	1038.998657226562	44.09292984008789	-1525.945678710938	1028.687622070312	-14.87315082550049	-1415.062255859375	818.48193359375	36.51716232299805	-1499.111450195312	816.6276245117188	64.98188018798828	-1503.073486328125	981.004150390625	53.40476226806641	-1440.992309570312	664.0343627929688	38.07551193237305	-1420.809326171875	720.1746215820312	49.39934158325195	-1496.442749023438	727.05517578125	65.33159637451172	-1276.837036132812	1598.043334960938	-110.2588119506836	-1097.392333984375	1586.5205078125	-213.7596435546875	-1140.713134765625	1593.578857421875	-90.55072784423828	-1233.478393554688	1594.758056640625	-283.0303344726562	-1187.50048828125	825.4563598632812	-387.5635681152344	-1487.048706054688	817.5711669921875	-113.0592727661133	-1363.508422851562	846.4864501953125	-84.69680786132812	-1187.099975585938	864.4525756835938	-265.4407348632812	-1038.328125	460.6305236816406	-232.0202026367188	-1069.168823242188	608.3486938476562	-275.9816589355469	-1009.34619140625	42.02169418334961	-226.0234069824219	-1004.806335449219	311.7498168945312	-231.4959411621094	-879.5618286132812	113.8447647094727	-37.91198348999023	-954.2643432617188	91.40357208251953	-58.30254745483398	-889.44775390625	86.67242431640625	-147.3980865478516	-1083.9267578125	36.26458740234375	-201.4940185546875	-1512.802368164062	435.3992309570312	-183.2123107910156	-1472.580322265625	679.5685424804688	-98.45240783691406	-1675.715209960938	48.37589263916016	-308.9842834472656	-1554.641967773438	298.4363098144531	-210.3766021728516	-1464.208129882812	47.29773330688477	-246.9334716796875	-1502.027709960938	55.75272750854492	-306.3245239257812	-1574.5537109375	45.61743545532227	-223.4678039550781	-1709.91259765625	54.19050979614258	-381.3508605957031	
205	2.04	-1465.830688476562	925.2059936523438	-282.0392456054688	-1373.219482421875	911.5604248046875	-390.18603515625	-1421.534423828125	1024.950073242188	-300.6042785644531	-1169.265502929688	1186.09619140625	-137.7786712646484	-1419.480346679688	1150.028076171875	-294.8245849609375	-1336.939208984375	1407.829956054688	-233.0317535400391	-1182.755737304688	1302.42724609375	-157.1123657226562	-1453.767211914062	1301.620971679688	-187.6238708496094	-1321.562866210938	1361.530517578125	-337.9434509277344	-1191.613891601562	1365.39990234375	-355.2891540527344	-1168.873046875	1248.30078125	-451.9317932128906	-1166.533203125	1034.333618164062	-491.8163146972656	-1268.284790039062	1031.932495117188	-467.9117431640625	-1149.455932617188	817.5689697265625	-441.4942016601562	-1165.708618164062	814.5031127929688	-514.0977783203125	-1157.705688476562	944.7275390625	-501.8419799804688	-1174.947998046875	658.0418701171875	-464.9113159179688	-1172.586791992188	736.3111572265625	-519.6382446289062	-1147.229125976562	729.7559814453125	-451.6784057617188	-1359.989135742188	1372.83544921875	-60.17604827880859	-1420.351318359375	1319.212890625	-3.449391603469849	-1485.259887695312	1038.184326171875	47.33904647827148	-1517.436157226562	1027.639770507812	-11.69897174835205	-1405.858032226562	818.0321655273438	40.71878433227539	-1490.00537109375	815.8921508789062	68.88654327392578	-1494.59130859375	980.172607421875	56.80288314819336	-1431.033813476562	663.4932250976562	42.75569915771484	-1411.143920898438	719.7653198242188	53.91429901123047	-1486.885986328125	726.3379516601562	69.548095703125	-1267.923217773438	1596.89501953125	-107.7683410644531	-1088.679931640625	1585.437622070312	-211.6808624267578	-1131.790405273438	1592.811645507812	-88.38311004638672	-1224.857421875	1593.154541015625	-280.72607421875	-1178.444702148438	823.6311645507812	-383.0615844726562	-1479.083129882812	816.931396484375	-109.3080673217773	-1354.978759765625	845.3134155273438	-80.66082763671875	-1178.19775390625	862.9363403320312	-261.0436401367188	-1029.049682617188	459.5784606933594	-225.8088836669922	-1059.597778320312	606.60205078125	-270.8286437988281	-1007.232543945312	41.35242462158203	-223.9944915771484	-997.9215087890625	309.8955688476562	-226.3410034179688	-876.0819702148438	106.9168090820312	-34.56072235107422	-951.1534423828125	86.24584197998047	-55.39057159423828	-886.460205078125	81.73661804199219	-144.5083770751953	-1081.980712890625	36.80707550048828	-199.6140594482422	-1507.590087890625	435.3938598632812	-180.0943756103516	-1465.300415039062	678.9491577148438	-94.68243408203125	-1675.409790039062	50.27738952636719	-308.4504699707031	-1551.440551757812	299.1594543457031	-208.0023651123047	-1463.998413085938	47.06282424926758	-246.7949829101562	-1501.839965820312	55.95954513549805	-305.7813110351562	-1574.48046875	45.48736190795898	-223.2466430664062	-1709.605224609375	58.04878234863281	-380.6912536621094	
206	2.05	-1456.620971679688	924.1118774414062	-278.45703125	-1363.655151367188	909.8876953125	-386.3788146972656	-1412.389282226562	1023.614074707031	-297.0685729980469	-1159.978149414062	1184.83154296875	-134.3258972167969	-1410.057495117188	1148.710327148438	-291.4155883789062	-1327.465942382812	1406.615112304688	-230.1540222167969	-1173.3310546875	1301.153198242188	-153.9266510009766	-1444.406372070312	1300.571533203125	-184.6599426269531	-1312.07958984375	1360.065063476562	-334.9213256835938	-1182.092529296875	1363.668090820312	-352.33056640625	-1159.809326171875	1246.196533203125	-448.741943359375	-1158.510864257812	1032.242309570312	-488.294921875	-1260.325073242188	1030.556396484375	-464.25537109375	-1143.716674804688	814.99755859375	-438.9970703125	-1159.959350585938	812.5579833984375	-511.5895080566406	-1150.615966796875	942.6201782226562	-498.6964416503906	-1170.929077148438	655.953125	-463.4425048828125	-1167.621704101562	734.5337524414062	-517.6610717773438	-1142.415771484375	727.210693359375	-449.7085266113281	-1350.623168945312	1371.844360351562	-57.1894416809082	-1411.101196289062	1318.294067382812	-0.5732550621032715	-1476.727172851562	1037.574951171875	50.53192901611328	-1508.730590820312	1026.803955078125	-8.575671195983887	-1396.480346679688	817.787109375	44.89673233032227	-1480.72216796875	815.3626708984375	72.74679565429688	-1485.927734375	979.5484619140625	60.15334701538086	-1420.91015625	663.1641845703125	47.41712951660156	-1401.310668945312	719.567626953125	58.41357040405273	-1477.161376953125	725.8335571289062	73.73288726806641	-1258.809814453125	1595.918334960938	-105.2917633056641	-1079.748291015625	1584.559692382812	-209.5749969482422	-1122.642333984375	1592.249877929688	-86.19640350341797	-1216.014038085938	1591.740112304688	-278.398193359375	-1169.130126953125	822.0557861328125	-378.4322509765625	-1470.902099609375	816.4637451171875	-105.5199127197266	-1346.262329101562	844.319580078125	-76.58394622802734	-1169.112670898438	861.6576538085938	-256.5637817382812	-1019.619140625	458.7547302246094	-219.4710388183594	-1049.755859375	605.0814208984375	-265.5522155761719	-1005.865295410156	40.93471527099609	-222.6143951416016	-991.154296875	308.2024536132812	-221.2764892578125	-873.340087890625	99.32148742675781	-31.68379974365234	-948.8287353515625	80.76939392089844	-52.9991340637207	-884.2071533203125	76.59201812744141	-142.1866455078125	-1080.743286132812	37.57823944091797	-198.3509063720703	-1502.1123046875	435.5471496582031	-176.8071899414062	-1457.824096679688	678.5000610351562	-90.85880279541016	-1675.054809570312	52.51288223266602	-307.8418579101562	-1548.061401367188	300.1060485839844	-205.4811859130859	-1463.752197265625	46.81236267089844	-246.6184997558594	-1501.598876953125	56.18558883666992	-305.1760559082031	-1574.345703125	45.36904144287109	-222.9885559082031	-1709.175659179688	62.34243774414062	-379.9402465820312	
207	2.06	-1447.179931640625	923.2550659179688	-274.825927734375	-1353.876220703125	908.5136108398438	-382.5530090332031	-1402.954833984375	1022.488342285156	-293.4667663574219	-1150.3984375	1183.79052734375	-130.8938751220703	-1400.374389648438	1147.615600585938	-288.0058288574219	-1317.735107421875	1405.604370117188	-227.2668151855469	-1163.634521484375	1300.09521484375	-150.7556610107422	-1434.774291992188	1299.730712890625	-181.7051086425781	-1302.344604492188	1358.816772460938	-331.8971862792969	-1172.311767578125	1362.169555664062	-349.3739624023438	-1150.508178710938	1244.331176757812	-445.5579223632812	-1150.260131835938	1030.376098632812	-484.7401123046875	-1252.1162109375	1029.401733398438	-460.539306640625	-1137.6416015625	812.7106323242188	-436.3151550292969	-1153.88232421875	810.8414306640625	-508.8869323730469	-1143.243041992188	940.7450561523438	-495.4520263671875	-1166.530883789062	654.1533813476562	-461.6861877441406	-1162.317749023438	732.9842529296875	-515.4302978515625	-1137.262817382812	724.9586181640625	-447.5052795410156	-1340.977172851562	1371.053466796875	-54.20462799072266	-1401.565673828125	1317.578857421875	2.291951179504395	-1468.011840820312	1037.205688476562	53.66626739501953	-1499.831787109375	1026.211669921875	-5.504825592041016	-1386.939575195312	817.7769165039062	49.04608917236328	-1471.2734375	815.0697631835938	76.55620574951172	-1477.088256835938	979.165771484375	63.44747161865234	-1410.640991210938	663.07470703125	52.05350875854492	-1391.330322265625	719.6076049804688	62.89410018920898	-1467.287231445312	725.5730590820312	77.88046264648438	-1249.496704101562	1595.130859375	-102.8325347900391	-1070.592895507812	1583.90185546875	-207.4390563964844	-1113.2724609375	1591.899291992188	-83.98886108398438	-1206.951416015625	1590.537719726562	-276.0470581054688	-1159.587890625	820.8150024414062	-373.6811218261719	-1462.501586914062	816.157958984375	-101.6824417114258	-1337.399536132812	843.513427734375	-72.48933410644531	-1159.851440429688	860.697509765625	-252.0037384033203	-1010.079772949219	458.1974487304688	-213.0592498779297	-1039.674560546875	603.9168090820312	-260.1415710449219	-1005.010864257812	40.75881195068359	-221.7073364257812	-984.4388427734375	306.7355651855469	-216.3105621337891	-871.1497192382812	91.46790313720703	-29.26080322265625	-947.0929565429688	75.32271575927734	-51.04775619506836	-882.4837646484375	71.53487396240234	-140.3677520751953	-1079.964721679688	38.53740692138672	-197.5125427246094	-1496.318359375	435.8446044921875	-173.3168640136719	-1450.127319335938	678.2191162109375	-86.97788238525391	-1674.634887695312	55.08621597290039	-307.131591796875	-1544.45263671875	301.2662048339844	-202.7941589355469	-1463.474853515625	46.55499267578125	-246.4087677001953	-1501.303100585938	56.44693374633789	-304.5006408691406	-1574.13916015625	45.26119995117188	-222.6912841796875	-1708.59814453125	67.09796905517578	-379.0746154785156	
